<?xml version="1.0" standalone="no"?>
<!DOCTYPE svg PUBLIC "-//W3C//DTD SVG 1.1//EN" "http://www.w3.org/Graphics/SVG/1.1/DTD/svg11.dtd" >
<!--
2013-9-30: Created.
-->
<svg>
<metadata>
Created by iconfont
</metadata>
<defs>

<font id="iconfont" horiz-adv-x="1024" >
  <font-face
    font-family="iconfont"
    font-weight="500"
    font-stretch="normal"
    units-per-em="1024"
    ascent="896"
    descent="-128"
  />
    <missing-glyph />
    
    <glyph glyph-name="x" unicode="x" horiz-adv-x="1001"
d="M281 543q-27 -1 -53 -1h-83q-18 0 -36.5 -6t-32.5 -18.5t-23 -32t-9 -45.5v-76h912v41q0 16 -0.5 30t-0.5 18q0 13 -5 29t-17 29.5t-31.5 22.5t-49.5 9h-133v-97h-438v97zM955 310v-52q0 -23 0.5 -52t0.5 -58t-10.5 -47.5t-26 -30t-33 -16t-31.5 -4.5q-14 -1 -29.5 -0.5
t-29.5 0.5h-32l-45 128h-439l-44 -128h-29h-34q-20 0 -45 1q-25 0 -41 9.5t-25.5 23t-13.5 29.5t-4 30v167h911zM163 247q-12 0 -21 -8.5t-9 -21.5t9 -21.5t21 -8.5q13 0 22 8.5t9 21.5t-9 21.5t-22 8.5zM316 123q-8 -26 -14 -48q-5 -19 -10.5 -37t-7.5 -25t-3 -15t1 -14.5
t9.5 -10.5t21.5 -4h37h67h81h80h64h36q23 0 34 12t2 38q-5 13 -9.5 30.5t-9.5 34.5q-5 19 -11 39h-368zM336 498v228q0 11 2.5 23t10 21.5t20.5 15.5t34 6h188q31 0 51.5 -14.5t20.5 -52.5v-227h-327z" />
    

    
    <glyph glyph-name="diamond" unicode="&#59615;" d="M1005.24032 586.3424l-162.54976 162.59072c-12.00128 12.00128-28.32384 18.75968-45.24032 18.75968l-570.83904 0c-16.95744 0-33.23904-6.7584-45.24032-18.75968l-162.57024-162.59072c-12.57472-12.53376-18.8416-29.0816-18.78016-45.6704 0.1024-15.03232 5.46816-30.04416 16.19968-42.10688l447.95904-477.06112c12.16512-13.70112 29.57312-21.504 47.84128-21.504s35.67616 7.80288 47.80032 21.504l448 477.06112c10.93632 12.32896 16.32256 27.7504 16.19968 43.13088-0.12288 16.19968-6.43072 32.31744-18.75968 44.6464zM583.00416 543.68256l-142.04928 0 71.04512 59.16672 71.00416-59.16672zM537.02656 623.67744l87.42912 72.88832 64.57344-64.57344-81.01888-67.4816-70.98368 59.16672zM416.01024 564.51072l-81.01888 67.4816 64.57344 64.57344 87.4496-72.88832-71.00416-59.16672zM591.68768 511.67232l-79.68768-398.49984-79.68768 398.49984 159.35488 0zM624.31232 511.67232l156.99968 0-235.47904-392.6016 78.49984 392.6016zM632.9344 543.68256l78.80704 65.6384 65.6384-65.6384-144.44544 0zM662.6304 703.67232l112.37376 0-61.31712-51.0976-51.07712 51.0976zM512 644.48512l-71.04512 59.20768 142.00832 0-70.98368-59.20768zM310.272 652.57472l-61.31712 51.0976 112.41472 0-51.0976-51.0976zM312.25856 609.32096l78.78656-65.6384-144.42496 0 65.6384 65.6384zM399.68768 511.67232l78.49984-392.6016-235.52 392.6016 157.02016 0zM406.528 176.37376l-314.88 335.29856 113.72544 0 201.15456-335.29856zM818.62656 511.67232l113.7664 0-314.94144-335.36 201.17504 335.36zM822.62016 543.68256l-86.17984 86.17984 73.50272 61.27616 147.41504-147.456-134.7584 0zM213.95456 691.2l73.6256-61.3376-86.20032-86.17984-137.17504 0 149.77024 147.51744z"  horiz-adv-x="1025" />

    
    <glyph glyph-name="bookmark" unicode="&#59892;" d="M811.446857 822.857143q13.165714 0 25.161143-5.12 18.870857-7.460571 29.988571-23.405714t11.117714-35.401143l0-736.548571q0-19.456-11.117714-35.401143t-29.988571-23.405714q-10.825143-4.534857-25.161143-4.534857-27.428571 0-47.396571 18.285714l-251.977143 242.322286-251.977143-242.322286q-20.553143-18.870857-47.396571-18.870857-13.165714 0-25.161143 5.12-18.870857 7.460571-29.988571 23.405714t-11.117714 35.401143l0 736.548571q0 19.456 11.117714 35.401143t29.988571 23.405714q11.995429 5.12 25.161143 5.12l598.820571 0z"  horiz-adv-x="1024" />

    
    <glyph glyph-name="edit" unicode="&#60071;" d="M507.465143 219.428571l66.267429 66.267429-86.820571 86.820571-66.267429-66.267429 0-32.036571 54.857143 0 0-54.857143 32.036571 0zM758.857143 630.857143q-9.142857 9.142857-18.870857-0.585143l-199.972571-199.972571q-9.728-9.728-0.585143-18.870857t18.870857 0.585143l199.972571 199.972571q9.728 9.728 0.585143 18.870857zM804.571429 291.401143l0-108.544q0-68.022857-48.274286-116.297143t-116.297143-48.274286l-475.428571 0q-68.022857 0-116.297143 48.274286t-48.274286 116.297143l0 475.428571q0 68.022857 48.274286 116.297143t116.297143 48.274286l475.428571 0q35.986286 0 66.852571-14.262857 8.557714-4.022857 10.313143-13.165714 1.682286-9.728-5.12-16.603429l-28.013714-28.013714q-7.972571-7.972571-18.285714-4.534857-13.165714 3.437714-25.746286 3.437714l-475.428571 0q-37.741714 0-64.585143-26.843429t-26.843429-64.585143l0-475.428571q0-37.741714 26.843429-64.585143t64.585143-26.843429l475.428571 0q37.741714 0 64.585143 26.843429t26.843429 64.585143l0 71.972571q0 7.460571 5.12 12.580571l36.571429 36.571429q8.557714 8.557714 19.968 4.022857t11.410286-16.603429zM749.714286 713.142857l164.571429-164.571429-384-384-164.571429 0 0 164.571429zM1003.446857 637.732571l-52.589714-52.589714-164.571429 164.571429 52.589714 52.589714q16.018286 16.018286 38.838857 16.018286t38.838857-16.018286l86.820571-86.820571q16.018286-16.018286 16.018286-38.838857t-16.018286-38.838857z"  horiz-adv-x="1024" />

    
    <glyph glyph-name="list" unicode="&#60218;" d="M146.285714 146.285714l0-109.714286q0-7.460571-5.412571-12.873143t-12.873143-5.412571l-109.714286 0q-7.460571 0-12.873143 5.412571t-5.412571 12.873143l0 109.714286q0 7.460571 5.412571 12.873143t12.873143 5.412571l109.714286 0q7.460571 0 12.873143-5.412571t5.412571-12.873143zM146.285714 365.714286l0-109.714286q0-7.460571-5.412571-12.873143t-12.873143-5.412571l-109.714286 0q-7.460571 0-12.873143 5.412571t-5.412571 12.873143l0 109.714286q0 7.460571 5.412571 12.873143t12.873143 5.412571l109.714286 0q7.460571 0 12.873143-5.412571t5.412571-12.873143zM146.285714 585.142857l0-109.714286q0-7.460571-5.412571-12.873143t-12.873143-5.412571l-109.714286 0q-7.460571 0-12.873143 5.412571t-5.412571 12.873143l0 109.714286q0 7.460571 5.412571 12.873143t12.873143 5.412571l109.714286 0q7.460571 0 12.873143-5.412571t5.412571-12.873143zM1024 146.285714l0-109.714286q0-7.460571-5.412571-12.873143t-12.873143-5.412571l-768 0q-7.460571 0-12.873143 5.412571t-5.412571 12.873143l0 109.714286q0 7.460571 5.412571 12.873143t12.873143 5.412571l768 0q7.460571 0 12.873143-5.412571t5.412571-12.873143zM146.285714 804.571429l0-109.714286q0-7.460571-5.412571-12.873143t-12.873143-5.412571l-109.714286 0q-7.460571 0-12.873143 5.412571t-5.412571 12.873143l0 109.714286q0 7.460571 5.412571 12.873143t12.873143 5.412571l109.714286 0q7.460571 0 12.873143-5.412571t5.412571-12.873143zM1024 365.714286l0-109.714286q0-7.460571-5.412571-12.873143t-12.873143-5.412571l-768 0q-7.460571 0-12.873143 5.412571t-5.412571 12.873143l0 109.714286q0 7.460571 5.412571 12.873143t12.873143 5.412571l768 0q7.460571 0 12.873143-5.412571t5.412571-12.873143zM1024 585.142857l0-109.714286q0-7.460571-5.412571-12.873143t-12.873143-5.412571l-768 0q-7.460571 0-12.873143 5.412571t-5.412571 12.873143l0 109.714286q0 7.460571 5.412571 12.873143t12.873143 5.412571l768 0q7.460571 0 12.873143-5.412571t5.412571-12.873143zM1024 804.571429l0-109.714286q0-7.460571-5.412571-12.873143t-12.873143-5.412571l-768 0q-7.460571 0-12.873143 5.412571t-5.412571 12.873143l0 109.714286q0 7.460571 5.412571 12.873143t12.873143 5.412571l768 0q7.460571 0 12.873143-5.412571t5.412571-12.873143z"  horiz-adv-x="1024" />

    
    <glyph glyph-name="shoppingcart" unicode="&#60374;" d="M402.285726 18.285714q0-29.696-21.723429-51.419429t-51.419429-21.723429-51.419429 21.723429-21.723429 51.419429 21.723429 51.419429 51.419429 21.723429 51.419429-21.723429 21.723429-51.419429zM914.285726 18.285714q0-29.696-21.723429-51.419429t-51.419429-21.723429-51.419429 21.723429-21.723429 51.419429 21.723429 51.419429 51.419429 21.723429 51.419429-21.723429 21.723429-51.419429zM987.428584 640l0-292.571429q0-13.677714-9.435429-24.283429t-23.113143-12.288l-596.553143-69.705143q7.460571-34.304 7.460571-40.009143 0-9.142857-13.677714-36.571429l525.677714 0q14.848 0 25.746286-10.825143t10.825143-25.746286-10.825143-25.746286-25.746286-10.825143l-585.142857 0q-14.848 0-25.746286 10.825143t-10.825143 25.746286q0 6.290286 4.534857 17.993143t9.142857 20.553143 12.288 22.820571 8.850286 16.822857l-101.156571 470.308571-116.589714 0q-14.848 0-25.746286 10.825143t-10.825143 25.746286 10.825143 25.746286 25.746286 10.825143l146.285714 0q9.142857 0 16.310857-3.730286t11.117714-8.850286 7.460571-13.970286 4.534857-14.848 3.145143-16.822857 2.56-14.848l686.299429 0q14.848 0 25.746286-10.825143t10.825143-25.746286z"  horiz-adv-x="1024" />

    
    <glyph glyph-name="tags" unicode="&#60468;" d="M256 640q0 30.281143-21.430857 51.712t-51.712 21.430857-51.712-21.430857-21.430857-51.712 21.430857-51.712 51.712-21.430857 51.712 21.430857 21.430857 51.712zM865.718857 310.857143q0-30.281143-21.138286-51.419429l-280.576-281.161143q-22.308571-21.138286-52.004571-21.138286-30.281143 0-51.419429 21.138286l-408.576 409.161143q-21.723429 21.138286-36.864 57.709714t-15.140571 66.852571l0 237.714286q0 29.696 21.723429 51.419429t51.419429 21.723429l237.714286 0q30.281143 0 66.852571-15.140571t58.294857-36.864l408.576-407.990857q21.138286-22.308571 21.138286-52.004571zM1085.147429 310.857143q0-30.281143-21.138286-51.419429l-280.576-281.161143q-22.308571-21.138286-52.004571-21.138286-20.553143 0-33.718857 7.972571t-30.281143 25.746286l268.580571 268.580571q21.138286 21.138286 21.138286 51.419429 0 29.696-21.138286 52.004571l-408.576 407.990857q-21.723429 21.723429-58.294857 36.864t-66.852571 15.140571l128 0q30.281143 0 66.852571-15.140571t58.294857-36.864l408.576-407.990857q21.138286-22.308571 21.138286-52.004571z"  horiz-adv-x="1098" />

    
    <glyph glyph-name="usersecret" unicode="&#60501;" d="M438.857198 18.285714l54.857143 256-54.857143 73.142857-73.142857 36.571429zM585.142912 18.285714l73.142857 365.714286-73.142857-36.571429-54.857143-73.142857zM676.571483 595.456q-1.170286 2.267429-2.267429 3.437714-5.705143 4.534857-54.857143 4.534857-40.009143 0-95.451429-10.825143-4.022857-1.170286-11.995429-1.170286t-11.995429 1.170286q-55.442286 10.825143-95.451429 10.825143-49.152 0-54.857143-4.534857-1.170286-1.170286-2.267429-3.437714 1.170286-10.313143 2.267429-15.433143 1.170286-1.682286 4.315429-3.730286t4.315429-5.997714q1.170286-2.267429 4.315429-11.702857t4.022857-11.702857 4.315429-9.728 4.827429-9.728 5.12-7.972571 6.875429-7.68 7.972571-5.412571 10.020571-4.534857 11.702857-2.267429 13.970286-1.170286q20.553143 0 33.718857 7.168t18.578286 17.115429 8.265143 19.748571 6.582857 16.822857 10.020571 7.168l6.875429 0q6.290286 0 10.020571-7.168t6.582857-16.822857 8.265143-19.748571 18.578286-17.115429 33.718857-7.168q7.460571 0 13.970286 1.170286t11.702857 2.267429 10.020571 4.534857 7.972571 5.412571 6.875429 7.68 5.12 7.972571 4.827429 9.728 4.315429 9.728 4.022857 11.702857 4.315429 11.702857q1.170286 4.022857 4.315429 5.997714t4.315429 3.730286q1.170286 5.12 2.267429 15.433143zM914.285769 93.110857q0-69.12-41.691429-108.544t-110.884571-39.424l-499.419429 0q-69.12 0-110.884571 39.424t-41.691429 108.544q0 34.889143 2.56 67.437714t10.825143 71.68 21.430857 70.582857 36.278857 59.172571 53.394286 42.569143l-51.419429 125.732571 122.294857 0q-12.580571 36.571429-12.580571 73.142857 0 6.875429 1.170286 18.285714-110.884571 22.820571-110.884571 54.857143 0 32.548571 120.027429 56.539429 9.728 35.401143 29.403429 76.580571t40.301714 65.170286q18.285714 21.138286 43.446857 21.138286 17.115429 0 47.981714-17.700571t47.981714-17.700571 47.981714 17.700571 47.981714 17.700571q25.161143 0 43.446857-21.138286 20.553143-23.990857 40.301714-65.170286t29.403429-76.580571q120.027429-23.990857 120.027429-56.539429 0-32.036571-110.884571-54.857143 4.022857-46.299429-11.410286-91.428571l122.294857 0-46.884571-128.585143q35.986286-18.870857 61.44-55.149714t37.449143-81.993143 16.603429-86.601143 4.534857-84.845714z"  horiz-adv-x="1024" />

    
    <glyph glyph-name="cc-trash" unicode="&#59050;" d="M780.826 731.999l-157.181 0 0 22.454c0 37.145-30.217 67.362-67.363 67.362l-89.817 0c-37.147 0-67.364-30.217-67.364-67.362l0-22.454-157.178 0c-37.146 0-67.364-30.217-67.364-67.362l0-44.909c0-29.295 18.773-54.25 44.91-63.503l0-565.213c0-37.149 30.217-67.364 67.361-67.364l449.086 0c37.147 0 67.363 30.215 67.363 67.364l0 565.213c26.138 9.254 44.906 34.208 44.906 63.503l0 44.909c0 37.145-30.216 67.362-67.359 67.362zM444.01 754.455c0 12.368 10.044 22.454 22.454 22.454l89.817 0c12.367 0 22.452-10.087 22.452-22.454l0-22.454-134.723 0 0 22.454zM735.916-31.444l-449.086 0c-12.411 0-22.452 10.086-22.452 22.455l0 561.353 493.991 0 0-561.353c0-12.37-10.086-22.455-22.452-22.455zM803.28 619.728c0-12.367-10.089-22.454-22.453-22.454l-538.903 0c-12.412 0-22.454 10.087-22.454 22.454l0 44.909c0 12.368 10.042 22.452 22.454 22.452l538.903 0c12.365 0 22.453-10.085 22.453-22.452l0-44.909zM646.099 507.457c-12.369 0-22.452-10.086-22.452-22.455l0-449.086c0-12.365 10.084-22.453 22.452-22.453 12.368 0 22.453 10.089 22.453 22.453l0 449.086c0 12.37-10.086 22.455-22.453 22.455zM511.375 507.457c-12.414 0-22.455-10.086-22.455-22.455l0-449.086c0-12.365 10.042-22.453 22.455-22.453 12.41 0 22.451 10.089 22.451 22.453l0 449.086c0 12.37-10.043 22.455-22.451 22.455zM376.648 507.457c-12.412 0-22.454-10.086-22.454-22.455l0-449.086c0-12.365 10.042-22.453 22.454-22.453 12.411 0 22.452 10.089 22.452 22.453l0 449.086c0.001 12.37-10.041 22.455-22.452 22.455z"  horiz-adv-x="1024" />

    
    <glyph glyph-name="ok" unicode="&#59194;" d="M954.796032 572.526592q0-22.85568-15.998976-38.854656l-413.687808-413.687808-77.709312-77.709312q-15.998976-15.998976-38.854656-15.998976t-38.854656 15.998976l-77.709312 77.709312-206.843904 206.843904q-15.998976 15.998976-15.998976 38.854656t15.998976 38.854656l77.709312 77.709312q15.998976 15.998976 38.854656 15.998976t38.854656-15.998976l167.989248-168.56064 374.833152 375.404544q15.998976 15.998976 38.854656 15.998976t38.854656-15.998976l77.709312-77.709312q15.998976-15.998976 15.998976-38.854656z"  horiz-adv-x="1024" />

    
    <glyph glyph-name="plus" unicode="&#59222;" d="M914.234368 475.389952l0-109.707264q0-22.85568-15.998976-38.854656t-38.854656-15.998976l-237.699072 0 0-237.699072q0-22.85568-15.998976-38.854656t-38.854656-15.998976l-109.707264 0q-22.85568 0-38.854656 15.998976t-15.998976 38.854656l0 237.699072-237.699072 0q-22.85568 0-38.854656 15.998976t-15.998976 38.854656l0 109.707264q0 22.85568 15.998976 38.854656t38.854656 15.998976l237.699072 0 0 237.699072q0 22.85568 15.998976 38.854656t38.854656 15.998976l109.707264 0q22.85568 0 38.854656-15.998976t15.998976-38.854656l0-237.699072 237.699072 0q22.85568 0 38.854656-15.998976t15.998976-38.854656z"  horiz-adv-x="1024" />

    
    <glyph glyph-name="signal" unicode="&#59267;" d="M146.276352 73.129984l0-109.707264q0-7.999488-5.142528-13.142016t-13.142016-5.142528l-109.707264 0q-7.999488 0-13.142016 5.142528t-5.142528 13.142016l0 109.707264q0 7.999488 5.142528 13.142016t13.142016 5.142528l109.707264 0q7.999488 0 13.142016-5.142528t5.142528-13.142016zm219.414528 73.138176l0-182.84544q0-7.999488-5.142528-13.142016t-13.142016-5.142528l-109.707264 0q-7.999488 0-13.142016 5.142528t-5.142528 13.142016l0 182.84544q0 7.999488 5.142528 13.142016t13.142016 5.142528l109.707264 0q7.999488 0 13.142016-5.142528t5.142528-13.142016zm219.414528 146.276352l0-329.121792q0-7.999488-5.142528-13.142016t-13.142016-5.142528l-109.707264 0q-7.999488 0-13.142016 5.142528t-5.142528 13.142016l0 329.121792q0 7.999488 5.142528 13.142016t13.142016 5.142528l109.707264 0q7.999488 0 13.142016-5.142528t5.142528-13.142016zm219.414528 219.414528l0-548.53632q0-7.999488-5.142528-13.142016t-13.142016-5.142528l-109.707264 0q-7.999488 0-13.142016 5.142528t-5.142528 13.142016l0 548.53632q0 7.999488 5.142528 13.142016t13.142016 5.142528l109.707264 0q7.999488 0 13.142016-5.142528t5.142528-13.142016zm219.414528 292.552704l0-841.089024q0-7.999488-5.142528-13.142016t-13.142016-5.142528l-109.707264 0q-7.999488 0-13.142016 5.142528t-5.142528 13.142016l0 841.089024q0 7.999488 5.142528 13.142016t13.142016 5.142528l109.707264 0q7.999488 0 13.142016-5.142528t5.142528-13.142016z"  horiz-adv-x="1024" />

    
    <glyph glyph-name="bellalt" unicode="&#58976;" d="M864.193 63.824 640.07 63.824c0-70.539-57.531-128.07-128.07-128.07s-128.07 57.531-128.07 128.07L159.807 63.824c-35.019 0-64.035 29.016-64.035 64.035 74.041 62.534 160.088 174.596 160.088 416.229 0 96.053 79.543 201.11 212.116 220.621-2.501 6.003-4.002 12.507-4.002 19.511 0 26.515 21.512 48.026 48.026 48.026s48.026-21.512 48.026-48.026c0-7.004-1.501-13.507-4.002-19.511 132.572-19.511 212.116-124.568 212.116-220.621 0-241.633 86.047-353.694 160.088-416.229C928.229 92.84 899.213 63.824 864.193 63.824zM512-8.215c-39.521 0-72.039 32.518-72.039 72.039 0 4.503-3.502 8.004-8.005 8.004s-8.005-3.501-8.005-8.004c0-48.526 39.521-88.049 88.049-88.049 4.503 0 8.004 3.502 8.004 8.005S516.503-8.215 512-8.215z"  horiz-adv-x="1024" />

    
    <glyph glyph-name="uploadalt" unicode="&#58996;" d="M928.229 31.807c0-26.515-21.512-48.026-48.026-48.026L143.798-16.219c-26.515 0-48.026 21.512-48.026 48.026L95.772 191.895c0 26.515 21.512 48.026 48.026 48.026l213.617 0c13.507-37.021 49.027-64.035 90.55-64.035l128.07 0c41.522 0 77.042 27.015 90.55 64.035l213.617 0c26.515 0 48.026-21.512 48.026-48.026L928.228 31.807zM736.123 496.062l-128.07 0 0-224.123c0-17.51-14.508-32.018-32.018-32.018l-128.07 0c-17.51 0-32.018 14.508-32.018 32.018L415.947 496.062l-128.07 0c-13.007 0-24.514 8.004-29.516 20.011-5.003 11.506-2.501 25.514 7.004 34.519l224.124 224.123c6.002 6.504 14.508 9.505 22.512 9.505s16.51-3.001 22.512-9.505l224.124-224.123c9.505-9.005 12.006-23.013 7.004-34.519C760.637 504.066 749.13 496.062 736.123 496.062zM704.105 111.851c-17.51 0-32.018-14.508-32.018-32.018s14.508-32.018 32.018-32.018 32.018 14.508 32.018 32.018S721.615 111.851 704.105 111.851zM832.176 111.851c-17.51 0-32.018-14.508-32.018-32.018s14.508-32.018 32.018-32.018 32.018 14.508 32.018 32.018S849.686 111.851 832.176 111.851z"  horiz-adv-x="1024" />

    
    <glyph glyph-name="picture" unicode="&#59036;" d="M992.264 79.833c0-44.024-36.02-80.044-80.044-80.044L111.78-0.211c-44.024 0-80.044 36.02-80.044 80.044L31.736 688.167c0 44.024 36.02 80.044 80.044 80.044L912.22 768.211c44.024 0 80.044-36.02 80.044-80.044L992.264 79.833zM111.78 704.176c-8.505 0-16.009-7.504-16.009-16.009l0-608.334c0-8.505 7.504-16.009 16.009-16.009L912.22 63.824c8.505 0 16.009 7.504 16.009 16.009L928.229 688.167c0 8.505-7.504 16.009-16.009 16.009L111.78 704.176zM255.859 448.035c-53.029 0-96.053 43.023-96.053 96.053s43.023 96.053 96.053 96.053 96.053-43.023 96.053-96.053S308.889 448.035 255.859 448.035zM864.193 127.859 159.807 127.859l0 96.053L319.895 384l80.044-80.044 256.141 256.141 208.114-208.114L864.194 127.859z"  horiz-adv-x="1024" />

    
    <glyph glyph-name="commentsalt" unicode="&#59078;" d="M750.555 473.505c0-131.856-146.767-238.554-328.013-238.554-28.421 0-55.911 2.796-82.003 7.455-38.672-27.49-82.469-47.524-129.527-59.639-12.58-3.262-26.093-5.592-40.07-7.455-0.466 0-0.932 0-1.397 0-6.989 0-13.512 5.591-14.91 13.512-1.863 8.853 4.193 14.444 9.319 20.501 18.171 20.501 38.672 38.672 54.513 77.344C142.986 330.466 94.529 398.025 94.529 473.505c0 131.857 146.768 238.555 328.013 238.555C603.788 712.06 750.555 605.362 750.555 473.505zM154.168 473.505c0-51.252 34.479-100.64 94.117-135.118l45.195-26.092-16.308-39.138c9.784 5.591 19.569 11.648 28.888 18.171l20.501 14.444 24.693-4.659c23.297-4.193 47.06-6.523 71.287-6.523 145.369 0 268.374 82.003 268.374 178.915 0 96.913-123.005 178.916-268.374 178.916S154.168 570.418 154.168 473.505zM860.048 90.048c5.125-6.057 11.182-11.648 9.318-20.501-1.864-8.387-8.853-14.443-16.308-13.512-13.978 1.863-27.489 4.193-40.069 7.455-47.059 12.114-90.856 32.148-129.528 59.639-26.092-4.659-53.581-7.455-82.003-7.455-84.333 0-161.677 23.296-219.917 61.502 13.512-0.932 27.489-1.863 41.001-1.863 100.175 0 194.758 28.888 266.977 81.071 77.81 56.843 120.675 133.72 120.675 217.121 0 24.228-3.728 47.99-10.717 70.821 78.742-43.331 129.994-112.289 129.994-190.097 0-75.946-48.456-143.04-123.937-186.837C821.376 128.72 841.876 110.549 860.048 90.048z"  horiz-adv-x="1024" />

    
    <glyph glyph-name="home" unicode="&#58958;" d="M950.153231 434.489689l-122.16073 111.794026-1.27984 1.087864 0 136.87889c0 10.110736-8.190976 18.365704-18.365704 18.365704l-82.549681 0c-10.110736 0-18.365704-8.190976-18.365704-18.365704l0-35.835521-5.11936 4.351456-150.829146 134.255218c-0.63992 0.575928-1.343832 1.023872-1.983752 1.471816-11.070616 8.766904-24.060992 13.43832-37.563305 13.43832-14.07824 0-27.51656-4.991376-38.971129-14.526184-0.127984-0.191976-0.31996-0.383952-0.511936-0.447944l-398.670166-352.595926c-10.55868-9.086864-12.926384-26.428696-5.247344-38.907137 7.67904-12.414448 22.525184-15.230096 33.083865-6.207224l398.350206 352.40395c0.063992 0 0.191976 0.127984 0.255968 0.191976C503.68104 744.850894 507.712536 746.386702 512 746.386702s8.31896-1.535808 11.710536-4.415448c0.191976-0.127984 0.383952-0.255968 0.575928-0.383952l398.094238-352.211974c10.55868-9.022872 25.404824-6.271216 33.083865 6.207224C963.079615 408.060992 960.775903 425.402825 950.153231 434.489689zM543.868016 624.8019c0 0.063992-0.127984 0.127984-0.191976 0.191976-9.342832 7.807024-20.349456 11.966504-31.740032 12.030496-11.390576 0-22.333208-4.15948-31.67604-11.902512-0.063992-0.127984-0.191976-0.191976-0.31996-0.31996l-276.189476-247.969004c-6.207224-5.311336-9.790776-13.694288-9.790776-22.525184l0.191976-328.598925c0-32.955881 26.748656-59.704537 59.704537-59.704537l156.780402 0 0 204.198475c0 41.338833 28.412448 74.742657 63.480065 74.742657l65.911761 0c35.067617 0 63.544057-33.403825 63.544057-74.742657l0-204.198475 166.315211 0c32.955881 0 59.704537 26.748656 59.704537 59.704537l0.255968 328.598925c0 8.830896-3.647544 17.213848-9.790776 22.525184L543.868016 624.8019z"  horiz-adv-x="1024" />

    
    <glyph glyph-name="LC_icon_date_line_2" unicode="&#58961;" d="M944 816h-16v32c0 26.468-21.532 48-48 48s-48-21.532-48-48v-32h-640v32c0 26.468-21.532 48-48 48s-48-21.532-48-48v-32h-16c-44.112 0-80-35.888-80-80v-704c0-44.112 35.888-80 80-80h176c8.836 0 16 7.164 16 16s-7.164 16-16 16h-176c-26.468 0-48 21.532-48 48v608h768c8.836 0 16 7.164 16 16s-7.164 16-16 16h-768v64c0 26.468 21.532 48 48 48h16v-32c0-26.468 21.532-48 48-48s48 21.532 48 48v32h640v-32c0-26.468 21.532-48 48-48s48 21.532 48 48v32h16c26.468 0 48-21.532 48-48v-64h-32c-8.836 0-16-7.164-16-16s7.164-16 16-16h32v-608c0-26.468-21.532-48-48-48h-176.004c-8.836 0-16-7.164-16-16s7.164-16 16-16h176.004c44.112 0 80 35.888 80 80v704c0 44.112-35.888 80-80 80zM160 752c0-8.822-7.178-16-16-16s-16 7.178-16 16v47.98c0 0.006 0 0.014 0 0.020s0 0.012 0 0.020v47.98c0 8.822 7.178 16 16 16s16-7.178 16-16v-96zM880 736c-8.822 0-16 7.178-16 16v96c0 8.822 7.178 16 16 16s16-7.178 16-16v-47.962c0-0.014-0.002-0.026-0.002-0.038s0.002-0.026 0.002-0.038v-47.962c0-8.822-7.178-16-16-16zM896 640c8.836 0 16 7.164 16 16s-7.164 16-16 16h-32c-8.836 0-16-7.164-16-16s7.164-16 16-16h32zM496 496h32c8.836 0 16 7.164 16 16s-7.164 16-16 16h-32c-8.836 0-16-7.164-16-16s7.164-16 16-16zM496 416h32c8.836 0 16 7.164 16 16s-7.164 16-16 16h-32c-8.836 0-16-7.164-16-16s7.164-16 16-16zM608 496h32c8.836 0 16 7.164 16 16s-7.164 16-16 16h-32c-8.836 0-16-7.164-16-16s7.164-16 16-16zM608 416h32c8.836 0 16 7.164 16 16s-7.164 16-16 16h-32c-8.836 0-16-7.164-16-16s7.164-16 16-16zM384 496h32c8.836 0 16 7.164 16 16s-7.164 16-16 16h-32c-8.836 0-16-7.164-16-16s7.164-16 16-16zM384 416h32c8.836 0 16 7.164 16 16s-7.164 16-16 16h-32c-8.836 0-16-7.164-16-16s7.164-16 16-16zM272 496h32c8.836 0 16 7.164 16 16s-7.164 16-16 16h-32c-8.836 0-16-7.164-16-16s7.164-16 16-16zM272 416h32c8.836 0 16 7.164 16 16s-7.164 16-16 16h-32c-8.836 0-16-7.164-16-16s7.164-16 16-16zM272 336h32c8.836 0 16 7.164 16 16s-7.164 16-16 16h-32c-8.836 0-16-7.164-16-16s7.164-16 16-16zM260.68 260.68c2.98-2.98 7.12-4.68 11.32-4.68 4.22 0 8.34 1.7 11.32 4.68 2.98 2.98 4.68 7.12 4.68 11.32s-1.7 8.34-4.68 11.32c-2.98 2.98-7.1 4.68-11.32 4.68-4.22 0-8.34-1.7-11.32-4.68-2.98-2.98-4.68-7.1-4.68-11.32 0-4.22 1.7-8.34 4.68-11.32zM720 496h32c8.836 0 16 7.164 16 16s-7.164 16-16 16h-32c-8.836 0-16-7.164-16-16s7.164-16 16-16zM720 416h32c8.836 0 16 7.164 16 16s-7.164 16-16 16h-32c-8.836 0-16-7.164-16-16s7.164-16 16-16zM720 336h32c8.836 0 16 7.164 16 16s-7.164 16-16 16h-32c-8.836 0-16-7.164-16-16s7.164-16 16-16zM740.68 283.32c-2.98-2.98-4.68-7.1-4.68-11.32s1.7-8.34 4.68-11.32c2.98-2.98 7.1-4.68 11.32-4.68 4.22 0 8.34 1.7 11.32 4.68 2.98 2.98 4.68 7.12 4.68 11.32 0 4.22-1.7 8.34-4.68 11.32-2.98 2.98-7.12 4.68-11.32 4.68-4.22 0-8.34-1.7-11.32-4.68zM816 512c0-8.836 7.164-16 16-16h32c8.836 0 16 7.164 16 16s-7.164 16-16 16h-32c-8.836 0-16-7.164-16-16zM832 416h32c8.836 0 16 7.164 16 16s-7.164 16-16 16h-32c-8.836 0-16-7.164-16-16s7.164-16 16-16zM832 336h32c8.836 0 16 7.164 16 16s-7.164 16-16 16h-32c-8.836 0-16-7.164-16-16s7.164-16 16-16zM832 256h32c8.836 0 16 7.164 16 16s-7.164 16-16 16h-32c-8.836 0-16-7.164-16-16s7.164-16 16-16zM832 176h32c8.836 0 16 7.164 16 16s-7.164 16-16 16h-32c-8.836 0-16-7.164-16-16s7.164-16 16-16zM832 96h32c8.836 0 16 7.164 16 16s-7.164 16-16 16h-32c-8.836 0-16-7.164-16-16s7.164-16 16-16zM192 528h-32c-8.836 0-16-7.164-16-16s7.164-16 16-16h32c8.836 0 16 7.164 16 16s-7.164 16-16 16zM192 448h-32c-8.836 0-16-7.164-16-16s7.164-16 16-16h32c8.836 0 16 7.164 16 16s-7.164 16-16 16zM192 368h-32c-8.836 0-16-7.164-16-16s7.164-16 16-16h32c8.836 0 16 7.164 16 16s-7.164 16-16 16zM192 288h-32c-8.836 0-16-7.164-16-16s7.164-16 16-16h32c8.836 0 16 7.164 16 16s-7.164 16-16 16zM192 208h-32c-8.836 0-16-7.164-16-16s7.164-16 16-16h32c8.836 0 16 7.164 16 16s-7.164 16-16 16zM192 128h-32c-8.836 0-16-7.164-16-16s7.164-16 16-16h32c8.836 0 16 7.164 16 16s-7.164 16-16 16zM512 352c-132.336 0-240-107.664-240-240s107.664-240 240-240 240 107.664 240 240-107.664 240-240 240zM528-95.39v15.39c0 8.836-7.164 16-16 16s-16-7.164-16-16v-15.39c-101.964 7.792-183.598 89.428-191.39 191.39h15.39c8.836 0 16 7.164 16 16s-7.164 16-16 16h-15.39c7.792 101.964 89.428 183.598 191.39 191.39v-15.39c0-8.836 7.164-16 16-16s16 7.164 16 16v15.39c101.964-7.792 183.598-89.428 191.39-191.39h-15.39c-8.836 0-16-7.164-16-16s7.164-16 16-16h15.39c-7.792-101.964-89.426-183.598-191.39-191.39zM640 128h-82.752c-4.828 13.614-15.632 24.418-29.248 29.248v82.752c0 8.836-7.164 16-16 16s-16-7.164-16-16v-82.752c-18.622-6.604-32-24.39-32-45.248 0-26.468 21.532-48 48-48 20.858 0 38.644 13.378 45.248 32h82.752c8.836 0 16 7.164 16 16s-7.164 16-16 16zM512 96c-8.822 0-16 7.178-16 16s7.178 16 16 16 16-7.178 16-16-7.178-16-16-16z"  horiz-adv-x="1024" />

    
    <glyph glyph-name="desktop" unicode="&#59068;" d="M1024 329.152l0 475.424q0 7.424-5.44 12.864t-12.864 5.44l-914.272 0q-7.424 0-12.864-5.44t-5.44-12.864l0-475.424q0-7.424 5.44-12.864t12.864-5.44l914.272 0q7.424 0 12.864 5.44t5.44 12.864zM1097.152 804.576l0-621.728q0-37.728-26.848-64.576t-64.576-26.848l-310.848 0q0-21.152 9.152-44.288t18.272-40.576 9.152-24.864q0-14.848-10.848-25.728t-25.728-10.848l-292.576 0q-14.848 0-25.728 10.848t-10.848 25.728q0 8 9.152 25.152t18.272 40 9.152 44.576l-310.848 0q-37.728 0-64.576 26.848t-26.848 64.576l0 621.728q0 37.728 26.848 64.576t64.576 26.848l914.272 0q37.728 0 64.576-26.848t26.848-64.576z"  horiz-adv-x="1098" />

    
    <glyph glyph-name="newspapero" unicode="&#59286;" d="M585.152 603.424l-219.424 0 0-219.424 219.424 0 0 219.424zM658.272 237.728l0-73.152-365.728 0 0 73.152 365.728 0zM658.272 676.576l0-365.728-365.728 0 0 365.728 365.728 0zM1024 237.728l0-73.152-292.576 0 0 73.152 292.576 0zM1024 384l0-73.152-292.576 0 0 73.152 292.576 0zM1024 530.272l0-73.152-292.576 0 0 73.152 292.576 0zM1024 676.576l0-73.152-292.576 0 0 73.152 292.576 0zM146.272 128l0 548.576-73.152 0 0-548.576q0-14.848 10.848-25.728t25.728-10.848 25.728 10.848 10.848 25.728zM1097.152 128l0 621.728-877.728 0 0-621.728q0-18.848-6.272-36.576l847.424 0q14.848 0 25.728 10.848t10.848 25.728zM1170.272 822.848l0-694.848q0-45.728-32-77.728t-77.728-32l-950.848 0q-45.728 0-77.728 32t-32 77.728l0 621.728 146.272 0 0 73.152 1024 0z"  horiz-adv-x="1184" />

    
    <glyph glyph-name="creditcard" unicode="&#59060;" d="M1005.714286 822.857143q37.714286 0 64.571429-26.857143t26.857143-64.571429l0-694.857143q0-37.714286-26.857143-64.571429t-64.571429-26.857143l-914.285714 0q-37.714286 0-64.571429 26.857143t-26.857143 64.571429l0 694.857143q0 37.714286 26.857143 64.571429t64.571429 26.857143l914.285714 0zm-914.285714-73.142857q-7.428571 0-12.857143-5.428571t-5.428571-12.857143l0-128 950.857143 0 0 128q0 7.428571-5.428571 12.857143t-12.857143 5.428571l-914.285714 0zm914.285714-731.428571q7.428571 0 12.857143 5.428571t5.428571 12.857143l0 347.428571-950.857143 0 0-347.428571q0-7.428571 5.428571-12.857143t12.857143-5.428571l914.285714 0zm-859.428571 73.142857l0 73.142857 146.285714 0 0-73.142857-146.285714 0zm219.428571 0l0 73.142857 219.428571 0 0-73.142857-219.428571 0z"  horiz-adv-x="1098" />

    
    <glyph glyph-name="feed" unicode="&#59113;" d="M329.142857 128q0-45.714286-32-77.714286t-77.714286-32-77.714286 32-32 77.714286 32 77.714286 77.714286 32 77.714286-32 32-77.714286zm292.571429-70.285714q1.142857-16-9.714286-27.428571-10.285714-12-26.857143-12l-77.142857 0q-14.285714 0-24.571429 9.428571t-11.428571 23.714286q-12.571429 130.857143-105.428571 223.714286t-223.714286 105.428571q-14.285714 1.142857-23.714286 11.428571t-9.428571 24.571429l0 77.142857q0 16.571429 12 26.857143 9.714286 9.714286 24.571429 9.714286l2.857143 0q91.428571-7.428571 174.857143-46t148-103.714286q65.142857-64.571429 103.714286-148t46-174.857143zm292.571429-1.142857q1.142857-15.428571-10.285714-26.857143-10.285714-11.428571-26.285714-11.428571l-81.714286 0q-14.857143 0-25.428571 10t-11.142857 24.285714q-6.857143 122.857143-57.714286 233.428571t-132.285714 192-192 132.285714-233.428571 58.285714q-14.285714 0.571429-24.285714 11.142857t-10 24.857143l0 81.714286q0 16 11.428571 26.285714 10.285714 10.285714 25.142857 10.285714l1.714286 0q149.714286-7.428571 286.571429-68.571429t243.142857-168q106.857143-106.285714 168-243.142857t68.571429-286.571429z"  horiz-adv-x="1024" />

    
    <glyph glyph-name="group" unicode="&#59164;" d="M338.857143 384q-92.571429-2.857143-151.428571-73.142857l-76.571429 0q-46.857143 0-78.857143 23.142857t-32 67.714286q0 201.714286 70.857143 201.714286 3.428571 0 24.857143-12t55.714286-24.285714 68-12.285714q38.285714 0 76 13.142857-2.857143-21.142857-2.857143-37.714286 0-79.428571 46.285714-146.285714zm612-364q0-68.571429-41.714286-108.285714t-110.857143-39.714286l-499.428571 0q-69.142857 0-110.857143 39.714286t-41.714286 108.285714q0 30.285714 2 59.142857t8 62.285714 15.142857 62 24.571429 55.714286 35.428571 46.285714 48.857143 30.571429 63.714286 11.428571q5.714286 0 24.571429-12.285714t41.714286-27.428571 61.142857-27.428571 77.142857-12.285714 77.142857 12.285714 61.142857 27.428571 41.714286 27.428571 24.571429 12.285714q34.857143 0 63.714286-11.428571t48.857143-30.571429 35.428571-46.285714 24.571429-55.714286 15.142857-62 8-62.285714 2-59.142857zm-585.142857 729.714286q0-60.571429-42.857143-103.428571t-103.428571-42.857143-103.428571 42.857143-42.857143 103.428571 42.857143 103.428571 103.428571 42.857143 103.428571-42.857143 42.857143-103.428571zm402.285714-219.428571q0-90.857143-64.285714-155.142857t-155.142857-64.285714-155.142857 64.285714-64.285714 155.142857 64.285714 155.142857 155.142857 64.285714 155.142857-64.285714 64.285714-155.142857zm329.142857-128.571429q0-44.571429-32-67.714286t-78.857143-23.142857l-76.571429 0q-58.857143 70.285714-151.428571 73.142857 46.285714 66.857143 46.285714 146.285714 0 16.571429-2.857143 37.714286 37.714286-13.142857 76-13.142857 33.714286 0 68 12.285714t55.714286 24.285714 24.857143 12q70.857143 0 70.857143-201.714286zm-73.142857 348q0-60.571429-42.857143-103.428571t-103.428571-42.857143-103.428571 42.857143-42.857143 103.428571 42.857143 103.428571 103.428571 42.857143 103.428571-42.857143 42.857143-103.428571z"  horiz-adv-x="1098" />

    
    <glyph glyph-name="pencil" unicode="&#59316;" d="M280.571429 18.285714l52 52-134.285714 134.285714-52-52 0-61.142857 73.142857 0 0-73.142857 61.142857 0zm298.857143 530.285714q0 12.571429-12.571429 12.571429-5.714286 0-9.714286-4l-309.714286-309.714286q-4-4-4-9.714286 0-12.571429 12.571429-12.571429 5.714286 0 9.714286 4l309.714286 309.714286q4 4 4 9.714286zm-30.857143 109.714286l237.714286-237.714286-475.428571-475.428571-237.714286 0 0 237.714286zm390.285714-54.857143q0-30.285714-21.142857-51.428571l-94.857143-94.857143-237.714286 237.714286 94.857143 94.285714q20.571429 21.714286 51.428571 21.714286 30.285714 0 52-21.714286l134.285714-133.714286q21.142857-22.285714 21.142857-52z"  horiz-adv-x="1024" />

    
    <glyph glyph-name="stickynote" unicode="&#59442;" d="M658.285714 182.857143l0-237.714286-530.285714 0q-22.857143 0-38.857143 16t-16 38.857143l0 768q0 22.857143 16 38.857143t38.857143 16l768 0q22.857143 0 38.857143-16t16-38.857143l0-530.285714-237.714286 0q-22.857143 0-38.857143-16t-16-38.857143zm73.142857-18.285714l217.714286 0q-8.571429-46.857143-37.142857-75.428571l-105.142857-105.142857q-28.571429-28.571429-75.428571-37.142857l0 217.714286z"  horiz-adv-x="1024" />

    
    <glyph glyph-name="user" unicode="&#59522;" d="M914.285714 93.142857q0-68.571429-41.714286-108.285714t-110.857143-39.714286l-499.428571 0q-69.142857 0-110.857143 39.714286t-41.714286 108.285714q0 30.285714 2 59.142857t8 62.285714 15.142857 62 24.571429 55.714286 35.428571 46.285714 48.857143 30.571429 63.714286 11.428571q5.142857 0 24-12.285714t42.571429-27.428571 61.714286-27.428571 76.285714-12.285714 76.285714 12.285714 61.714286 27.428571 42.571429 27.428571 24 12.285714q34.857143 0 63.714286-11.428571t48.857143-30.571429 35.428571-46.285714 24.571429-55.714286 15.142857-62 8-62.285714 2-59.142857zm-182.857143 510.285714q0-90.857143-64.285714-155.142857t-155.142857-64.285714-155.142857 64.285714-64.285714 155.142857 64.285714 155.142857 155.142857 64.285714 155.142857-64.285714 64.285714-155.142857z"  horiz-adv-x="1024" />

    
    <glyph glyph-name="plus1" unicode="&#59175;" d="M576 704 448 704 448 448 192 448 192 320 448 320 448 64 576 64 576 320 832 320 832 448 576 448Z"  horiz-adv-x="1024" />

    
    <glyph glyph-name="search" unicode="&#58899;" d="M662.635 435.437q0 87.1-61.912 149.013t-149.013 61.912-149.013-61.912-61.912-149.013 61.912-149.013 149.013-61.912 149.013 61.912 61.912 149.013zM903.69 43.722q0-24.482-17.891-42.373t-42.373-17.891q-25.424 0-42.373 17.891l-161.488 161.017q-84.276-58.381-187.853-58.381-67.326 0-128.768 26.13t-105.933 70.622-70.622 105.933-26.13 128.768 26.13 128.768 70.622 105.933 105.933 70.622 128.768 26.13 128.767-26.13 105.933-70.622 70.622-105.933 26.13-128.768q0-103.578-58.381-187.853l161.488-161.488q17.421-17.421 17.421-42.373z"  horiz-adv-x="1024" />

    
    <glyph glyph-name="down" unicode="&#58953;" d="M105.19329 556.43586l61.86318 61.86318 406.865311-406.865311-61.86318-61.86318-406.865311 406.865311ZM856.93607 618.439167l61.86318-61.86318-406.865311-406.865311-61.86318 61.86318 406.865311 406.865311Z"  horiz-adv-x="1024" />

    
    <glyph glyph-name="cogs" unicode="&#58972;" d="M512 384q0 60.571429-42.857143 103.428571t-103.428571 42.857143-103.428572-42.857143-42.857143-103.428571 42.857143-103.428571 103.428572-42.857143 103.428571 42.857143 42.857143 103.428571z m438.857143-292.571429q0 29.714286-21.714286 51.428572t-51.428571 21.714286-51.428572-21.714286-21.714285-51.428572q0-30.285714 21.428571-51.714285t51.714286-21.428572 51.714285 21.428572 21.428572 51.714285z m0 585.142858q0 29.714286-21.714286 51.428571t-51.428571 21.714286-51.428572-21.714286-21.714285-51.428571q0-30.285714 21.428571-51.714286T877.714286 603.428571t51.714285 21.428572T950.857143 676.571429z m-219.428572-240.571429v-105.714286q0-5.714286-4-11.142857t-9.142857-6l-88.571428-13.714286q-6.285714-20-18.285715-43.428571 19.428571-27.428571 51.428572-65.714286 4-6.285714 4-11.428571 0-6.857143-4-10.857143-13.142857-17.142857-47.142857-51.142857T570.857143 82.857143q-6.285714 0-12 4l-65.714286 51.428571q-21.142857-10.857143-44-17.714285-6.285714-61.714286-13.142857-88.571429-4-13.714286-17.142857-13.714286H312.571429q-6.285714 0-11.428572 4.285715t-5.714286 10l-13.142857 87.428571q-19.428571 5.714286-42.857143 17.714286l-67.428571-50.857143q-4-4-11.428571-4-6.285714 0-12 4.571428-82.285714 76-82.285715 91.428572 0 5.142857 4 10.857143 5.714286 8 23.428572 30.285714t26.857143 34.857143q-13.142857 25.142857-20 46.857143l-86.857143 13.714285q-5.714286 0.571429-9.714286 5.428572T0 332V437.714286q0 5.714286 4 11.142857T13.142857 454.857143l88.571429 13.714286q6.285714 20 18.285714 43.428571-19.428571 27.428571-51.428571 65.714286-4 6.285714-4 11.428571 0 6.857143 4 11.428572 12.571429 17.142857 46.857142 50.857142t45.142858 33.714286q6.285714 0 12-4l65.714285-51.428571q19.428571 10.285714 44 18.285714 6.285714 61.714286 13.142857 88 4 13.714286 17.142858 13.714286h106.285714q6.285714 0 11.428571-4.285715t5.714286-10l13.142857-87.428571q19.428571-5.714286 42.857143-17.714286l67.428571 50.857143q4.571429 4 11.428572 4 6.285714 0 12-4.571428 82.285714-76 82.285714-91.428572 0-4.571429-4-10.857143-6.857143-9.142857-24-30.857143t-25.714286-34.285714q13.142857-27.428571 19.428572-46.857143l86.857143-13.142857q5.714286-1.142857 9.714285-6t4-11.142857z m365.714286-304.571429v-80q0-9.142857-85.142857-17.714285-6.857143-15.428571-17.142857-29.714286 29.142857-64.571429 29.142857-78.857143 0-2.285714-2.285714-4-69.714286-40.571429-70.857143-40.571428-4.571429 0-26.285714 26.857142t-29.714286 38.857143q-11.428571-1.142857-17.142857-1.142857t-17.142857 1.142857q-8-12-29.714286-38.857143t-26.285714-26.857142q-1.142857 0-70.857143 40.571428-2.285714 1.714286-2.285715 4 0 14.285714 29.142858 78.857143-10.285714 14.285714-17.142858 29.714286-85.142857 8.571429-85.142857 17.714285v80q0 9.142857 85.142857 17.714286 7.428571 16.571429 17.142858 29.714286-29.142857 64.571429-29.142858 78.857143 0 2.285714 2.285715 4 2.285714 1.142857 20 11.428571t33.714285 19.428572 17.142858 9.142857q4.571429 0 26.285714-26.571429t29.714286-38.571428q11.428571 1.142857 17.142857 1.142857t17.142857-1.142857q29.142857 40.571429 52.571428 64l3.428572 1.142857q2.285714 0 70.857143-40 2.285714-1.714286 2.285714-4 0-14.285714-29.142857-78.857143 9.714286-13.142857 17.142857-29.714286 85.142857-8.571429 85.142857-17.714286z m0 585.142858v-80q0-9.142857-85.142857-17.714286-6.857143-15.428571-17.142857-29.714286 29.142857-64.571429 29.142857-78.857143 0-2.285714-2.285714-4-69.714286-40.571429-70.857143-40.571428-4.571429 0-26.285714 26.857143t-29.714286 38.857142q-11.428571-1.142857-17.142857-1.142857t-17.142857 1.142857q-8-12-29.714286-38.857142t-26.285714-26.857143q-1.142857 0-70.857143 40.571428-2.285714 1.714286-2.285715 4 0 14.285714 29.142858 78.857143-10.285714 14.285714-17.142858 29.714286-85.142857 8.571429-85.142857 17.714286V716.571429q0 9.142857 85.142857 17.714285 7.428571 16.571429 17.142858 29.714286-29.142857 64.571429-29.142858 78.857143 0 2.285714 2.285715 4 2.285714 1.142857 20 11.428571t33.714285 19.428572 17.142858 9.142857q4.571429 0 26.285714-26.571429t29.714286-38.571428q11.428571 1.142857 17.142857 1.142857t17.142857-1.142857q29.142857 40.571429 52.571428 64l3.428572 1.142857q2.285714 0 70.857143-40 2.285714-1.714286 2.285714-4 0-14.285714-29.142857-78.857143 9.714286-13.142857 17.142857-29.714286 85.142857-8.571429 85.142857-17.714285z"  horiz-adv-x="1097" />

    
    <glyph glyph-name="envelope" unicode="&#58989;" d="M1024 490.285714v-453.714285q0-37.714286-26.857143-64.571429t-64.571428-26.857143H91.428571q-37.714286 0-64.571428 26.857143T0 36.571429V490.285714q25.142857-28 57.714286-49.714285 206.857143-140.571429 284-197.142858 32.571429-24 52.857143-37.428571t54-27.428571 62.857142-14h1.142858q29.142857 0 62.857142 14t54 27.428571 52.857143 37.428571q97.142857 70.285714 284.571429 197.142858 32.571429 22.285714 57.142857 49.714285z m0 168q0-45.142857-28-86.285714t-69.714286-70.285714q-214.857143-149.142857-267.428571-185.714286-5.714286-4-24.285714-17.428571t-30.857143-21.714286-29.714286-18.571429-32.857143-15.428571-28.571428-5.142857h-1.142858q-13.142857 0-28.571428 5.142857t-32.857143 15.428571-29.714286 18.571429-30.857143 21.714286T365.142857 316q-52 36.571429-149.714286 104.285714T98.285714 501.714286q-35.428571 24-66.857143 66T0 645.714286q0 44.571429 23.714286 74.285714T91.428571 749.714286h841.142858q37.142857 0 64.285714-26.857143t27.142857-64.571429z"  horiz-adv-x="1024" />

    
    <glyph glyph-name="left" unicode="&#58925;" d="M724 0q-15.008 0-27.008 10.016L272.992 351.008q-16 12.992-16 34.016t16 34.016L695.008 758.048q14.016 11.008 32 8.992t29.504-16 9.504-32-16-28.992l-380-304.992 382.016-307.008q14.016-11.008 16-28.992t-10.016-32q-12.992-16.992-34.016-16.992z"  horiz-adv-x="1024" />

    
    <glyph glyph-name="down1" unicode="&#59114;" d="M163.446154 620.307692h697.107692c19.692308 0 33.476923-25.6 17.723077-43.323077L537.6 159.507692c-11.815385-15.753846-37.415385-15.753846-49.230769 0L143.753846 576.984615c-13.784615 17.723077-1.969231 43.323077 19.692308 43.323077z"  horiz-adv-x="1024" />

    
    <glyph glyph-name="up" unicode="&#59188;" d="M860.553846 147.692308H163.446154c-19.692308 0-33.476923 25.6-17.723077 43.323077l340.676923 417.476923c11.815385 15.753846 37.415385 15.753846 49.230769 0l344.615385-417.476923c13.784615-17.723077 1.969231-43.323077-19.692308-43.323077z"  horiz-adv-x="1024" />

    
    <glyph glyph-name="cubes" unicode="&#58927;" d="M485.004 312.497L289.121 425.591a19.939 19.939 0 0 1-19.937 0L73.302 312.497a19.937 19.937 0 0 1-9.968-17.266v-226.186c0-7.122 3.8-13.704 9.968-17.265l195.883-113.093a19.939 19.939 0 0 1 19.937 0L485.004 51.78a19.937 19.937 0 0 1 9.968 17.265V295.232a19.931 19.931 0 0 1-9.968 17.265z m-209.271-95.248L124.39 287.423c-7.24 4.69-6.831 15.609 0.782 20.856l143.927 80.795c4.327 2.982 9.834 3.189 13.95 0.524l145.259-82.341c7.241-4.69 6.833-15.609-0.781-20.856l-137.843-68.628c-4.328-2.982-9.835-3.189-13.951-0.524z m179.469-139.356l-145.346-83.655c-5.758-3.555-13.358 0.407-14.517 7.567l0.083 169.416c-0.657 4.069 1.048 8.041 4.32 10.062l147.45 75.253c5.758 3.555 13.358-0.407 14.516-7.567l-2.185-161.014c0.656-4.07-1.049-8.042-4.321-10.062zM727.28 455.572a19.937 19.937 0 0 1 9.968 17.265V699.024c0 7.123-3.8 13.704-9.968 17.266L531.396 829.383a19.939 19.939 0 0 1-19.937 0L315.577 716.289a19.937 19.937 0 0 1-9.968-17.266v-226.187c0-7.122 3.8-13.704 9.968-17.265L511.46 342.479a19.939 19.939 0 0 1 19.937 0L727.28 455.572z m-23.298 197.189l-2.185-161.014c0.657-4.069-1.048-8.041-4.32-10.062L552.131 398.03c-5.758-3.555-13.358 0.407-14.517 7.567l0.083 169.416c-0.657 4.069 1.048 8.041 4.32 10.062l147.45 75.253c5.758 3.554 13.358-0.408 14.515-7.567z m-185.974-31.72l-151.343 70.173c-7.24 4.69-6.831 15.609 0.782 20.856l143.927 80.795c4.327 2.982 9.834 3.189 13.95 0.523l145.259-82.341c7.241-4.69 6.833-15.609-0.781-20.856l-137.843-68.628c-4.327-2.98-9.835-3.187-13.951-0.522zM949.365 312.497L753.482 425.591a19.939 19.939 0 0 1-19.937 0L537.662 312.497a19.937 19.937 0 0 1-9.968-17.266v-226.186c0-7.122 3.8-13.704 9.968-17.265l195.883-113.093a19.939 19.939 0 0 1 19.937 0L949.365 51.78a19.937 19.937 0 0 1 9.968 17.265V295.232c0 7.123-3.8 13.704-9.968 17.265z m-209.272-95.248L588.75 287.423c-7.24 4.69-6.831 15.609 0.782 20.856l143.927 80.795c4.327 2.982 9.834 3.189 13.95 0.524l145.259-82.341c7.241-4.69 6.833-15.609-0.781-20.856l-137.843-68.628c-4.327-2.982-9.834-3.189-13.951-0.524z m179.469-139.356l-145.346-83.655c-5.758-3.555-13.358 0.407-14.517 7.567l0.083 169.416c-0.657 4.069 1.048 8.041 4.32 10.062l147.45 75.253c5.758 3.555 13.358-0.407 14.516-7.567l-2.185-161.014c0.656-4.07-1.049-8.042-4.321-10.062z"  horiz-adv-x="1024" />

    
    <glyph glyph-name="list1" unicode="&#59134;" d="M62.5 640.183c0 17.652 14.296 31.962 31.911 31.962h829.11c17.624 0 31.911-14.346 31.911-31.962 0-17.652-14.296-31.962-31.911-31.962H94.41c-17.624 0-31.912 14.345-31.912 31.962z m0-255.695c0 17.652 14.296 31.962 31.911 31.962h829.11c17.624 0 31.911-14.346 31.911-31.962 0-17.652-14.296-31.962-31.911-31.962H94.41c-17.624 0-31.912 14.346-31.912 31.962z m0-255.694c0 17.652 14.296 31.962 31.911 31.962h829.11c17.624 0 31.911-14.346 31.911-31.962 0-17.652-14.296-31.962-31.911-31.962H94.41c-17.624 0-31.912 14.345-31.912 31.962z"  horiz-adv-x="1024" />

    
    <glyph glyph-name="bar-chart" unicode="&#58910;" d="M365.714286 384v-292.571429H219.428571v292.571429h146.285715z m219.428571 292.571429v-585.142858h-146.285714V676.571429h146.285714z m585.142857-658.285715v-73.142857H0V822.857143h73.142857v-804.571429h1097.142857zM804.571429 530.285714v-438.857143h-146.285715V530.285714h146.285715z m219.428571 219.428572v-658.285715h-146.285714V749.714286h146.285714z"  horiz-adv-x="1170" />

    
    <glyph glyph-name="check-square-o" unicode="&#58950;" d="M841.142857 364.580571V182.857143c0-90.843429-73.728-164.571429-164.571428-164.571429h-475.428572A164.644571 164.644571 0 0 0 36.571429 182.857143v475.428571C36.571429 749.129143 110.299429 822.857143 201.142857 822.857143h475.428572c22.857143 0 45.714286-4.571429 66.852571-14.299429 5.156571-2.304 9.142857-7.424 10.276571-13.129143a17.956571 17.956571 0 0 0-5.156571-16.566857l-28.013714-28.013714a19.602286 19.602286 0 0 0-13.129143-5.705143c-1.718857 0-3.437714 0.585143-5.156572 1.133714A98.633143 98.633143 0 0 1 676.534857 749.714286h-475.428571a91.684571 91.684571 0 0 1-91.428572-91.428572v-475.428571c0-50.285714 41.142857-91.428571 91.428572-91.428572h475.428571c50.285714 0 91.428571 41.142857 91.428572 91.428572v145.152c0 4.571429 1.718857 9.142857 5.156571 12.580571l36.571429 36.571429a18.249143 18.249143 0 0 0 13.129142 5.705143c2.304 0 4.571429-0.585143 6.838858-1.718857 6.838857-2.852571 11.446857-9.142857 11.446857-16.566858z m131.986286 279.405715L507.977143 178.834286c-18.285714-18.285714-46.848-18.285714-65.133714 0L197.12 424.557714c-18.285714 18.285714-18.285714 46.848 0 65.133715l62.866286 62.866285c18.285714 18.285714 46.848 18.285714 65.133714 0l150.272-150.272L845.092571 771.986286c18.285714 18.285714 46.848 18.285714 65.133715 0l62.866285-62.866286c18.285714-18.285714 18.285714-46.848 0-65.133714z"  horiz-adv-x="1024" />

    
    <glyph glyph-name="close" unicode="&#58963;" d="M851.419429 140.580571c0-14.299429-5.705143-28.562286-16.018286-38.838857l-77.714286-77.714285c-10.276571-10.276571-24.576-16.018286-38.838857-16.018286s-28.562286 5.705143-38.838857 16.018286L512 192.036571l-168.009143-168.009142c-10.276571-10.276571-24.576-16.018286-38.838857-16.018286s-28.562286 5.705143-38.838857 16.018286l-77.714286 77.714285c-10.276571 10.276571-16.018286 24.576-16.018286 38.838857s5.705143 28.562286 16.018286 38.838858L356.608 347.428571l-168.009143 168.009143c-10.276571 10.276571-16.018286 24.576-16.018286 38.838857s5.705143 28.562286 16.018286 38.838858l77.714286 77.714285c10.276571 10.276571 24.576 16.018286 38.838857 16.018286s28.562286-5.705143 38.838857-16.018286L512 502.820571l168.009143 168.009143c10.276571 10.276571 24.576 16.018286 38.838857 16.018286s28.562286-5.705143 38.838857-16.018286l77.714286-77.714285c10.276571-10.276571 16.018286-24.576 16.018286-38.838858s-5.705143-28.562286-16.018286-38.838857L667.392 347.428571l168.009143-168.009142c10.276571-10.276571 16.018286-24.576 16.018286-38.838858z"  horiz-adv-x="1024" />

    
    <glyph glyph-name="cog" unicode="&#58969;" d="M658.286446 384c0 80.566857-65.718857 146.285714-146.285715 146.285714s-146.285714-65.718857-146.285714-146.285714 65.718857-146.285714 146.285714-146.285714 146.285714 65.718857 146.285715 146.285714z m292.571428 62.281143v-126.866286c0-8.557714-6.838857-18.870857-16.018285-20.553143l-105.728-16.018285a324.022857 324.022857 0 0 0-22.272-52.004572c19.419429-28.013714 40.009143-53.138286 61.147428-78.848 3.437714-3.986286 5.705143-9.142857 5.705143-14.299428s-1.718857-9.142857-5.156571-13.129143c-13.714286-18.285714-90.843429-102.290286-110.299429-102.290286a29.074286 29.074286 0 0 0-14.848 5.156571l-78.848 61.696a345.563429 345.563429 0 0 0-52.004571-21.723428c-3.986286-34.852571-7.424-72.009143-16.566858-106.276572a20.955429 20.955429 0 0 0-20.553142-16.018285h-126.866286c-10.276571 0-19.419429 7.424-20.553143 17.152l-16.018286 105.142857a336.237714 336.237714 0 0 0-51.419428 21.138286l-80.566857-61.147429c-3.986286-3.437714-9.142857-5.156571-14.299429-5.156571s-10.276571 2.304-14.299429 6.290285c-30.281143 27.428571-70.290286 62.866286-94.281142 96a22.198857 22.198857 0 0 0 0.585142 26.258286c19.419429 26.294857 40.557714 51.419429 60.013715 78.299429a304.420571 304.420571 0 0 0-23.442286 56.576l-104.557714 15.433142A20.845714 20.845714 0 0 0 73.143589 321.645714v126.866286c0 8.557714 6.838857 18.870857 15.433142 20.553143l106.276572 16.018286c5.705143 18.285714 13.129143 35.437714 22.272 52.553142a1376.548571 1376.548571 0 0 1-61.147429 78.848c-3.437714 3.986286-5.705143 8.557714-5.705143 13.714286s2.304 9.142857 5.156572 13.129143c13.714286 18.870857 90.843429 102.290286 110.299428 102.290286 5.156571 0 10.276571-2.304 14.848-5.705143L359.424731 678.765714a345.563429 345.563429 0 0 0 52.004572 21.723429c3.986286 34.852571 7.424 72.009143 16.566857 106.276571a20.955429 20.955429 0 0 0 20.553143 16.018286h126.866286c10.276571 0 19.419429-7.424 20.553142-17.152l16.018286-105.142857c17.700571-5.705143 34.852571-12.580571 51.419429-21.138286l81.152 61.147429c3.437714 3.437714 8.557714 5.156571 13.714285 5.156571s10.276571-2.304 14.299429-5.705143c30.281143-28.013714 70.290286-63.414857 94.281143-97.133714a19.529143 19.529143 0 0 0 3.986286-12.580571c0-5.156571-1.718857-9.142857-4.571429-13.129143-19.419429-26.294857-40.557714-51.419429-60.013714-78.299429 9.728-18.285714 17.700571-37.156571 23.442285-55.990857l104.557715-16.018286a20.845714 20.845714 0 0 0 16.566857-20.553143z"  horiz-adv-x="1024" />

    
    <glyph glyph-name="laptop" unicode="&#59079;" d="M237.714286 164.571429A91.684571 91.684571 0 0 0 146.285714 256v402.285714C146.285714 708.571429 187.428571 749.714286 237.714286 749.714286h621.714285C909.714286 749.714286 950.857143 708.571429 950.857143 658.285714v-402.285714c0-50.285714-41.142857-91.428571-91.428572-91.428571h-621.714285zM219.428571 658.285714v-402.285714c0-9.728 8.557714-18.285714 18.285715-18.285714h621.714285c9.728 0 18.285714 8.557714 18.285715 18.285714v402.285714c0 9.728-8.557714 18.285714-18.285715 18.285715h-621.714285c-9.728 0-18.285714-8.557714-18.285715-18.285715zM1005.714286 128H1097.142857v-54.857143c0-30.281143-41.142857-54.857143-91.428571-54.857143h-914.285715C41.142857 18.285714 0 42.861714 0 73.142857V128h1005.714286z m-411.428572-54.857143c5.156571 0 9.142857 3.986286 9.142857 9.142857s-3.986286 9.142857-9.142857 9.142857h-91.428571c-5.156571 0-9.142857-3.986286-9.142857-9.142857s3.986286-9.142857 9.142857-9.142857h91.428571z"  horiz-adv-x="1097" />

    
    <glyph glyph-name="shopping-bag" unicode="&#59150;" d="M1004.176457 91.428571L1024.181029-87.442286c1.133714-10.276571-2.304-20.553143-9.142858-28.562285A38.034286 38.034286 0 0 0 987.6096-128H36.752457c-10.276571 0-20.553143 4.571429-27.428571 11.995429a37.741714 37.741714 0 0 0-9.142857 28.562285L20.1856 91.428571h983.990857zM951.038171 570.843429L1000.190171 128H24.171886L73.323886 570.843429c2.304 18.285714 17.700571 32.585143 36.571428 32.585142h146.285715v-73.142857c0-40.557714 32.585143-73.142857 73.142857-73.142857s73.142857 32.585143 73.142857 73.142857V603.428571h219.428571v-73.142857c0-40.557714 32.585143-73.142857 73.142857-73.142857s73.142857 32.585143 73.142858 73.142857V603.428571h146.285714c18.870857 0 34.304-14.299429 36.571428-32.585142zM731.6096 676.571429v-146.285715c0-20.004571-16.566857-36.571429-36.571429-36.571428s-36.571429 16.566857-36.571428 36.571428V676.571429c0 80.566857-65.718857 146.285714-146.285714 146.285714s-146.285714-65.718857-146.285715-146.285714v-146.285715c0-20.004571-16.566857-36.571429-36.571428-36.571428s-36.571429 16.566857-36.571429 36.571428V676.571429c0 121.161143 98.304 219.428571 219.428572 219.428571s219.428571-98.304 219.428571-219.428571z"  horiz-adv-x="1024" />

    
    <glyph glyph-name="right-sorting-o" unicode="&#59842;" d="M477.056 362.666667l0.469333 0.426666-191.36 191.402667L256 524.373333 417.706667 362.666667 256 200.96l30.165333-30.122667 191.36 191.36-0.426666 0.469334z m256 0l0.469333 0.426666-191.36 191.402667L512 524.373333l161.706667-161.664L512 200.96l30.165333-30.122667 191.36 191.36-0.426666 0.469334z"  horiz-adv-x="1024" />

    


  </font>
</defs>
</svg>
